<svg width="1253" height="1253" viewBox="0 0 1253 1253" fill="none" xmlns="http://www.w3.org/2000/svg">
<path d="M107.73 393.26C92.1375 393.26 89.3025 379.242 91.98 364.91C99.0675 327.425 112.613 245.367 115.133 199.062C111.038 194.18 108.675 186.147 108.675 177.8C108.675 160.947 119.858 151.025 131.985 151.025C146.475 151.025 155.61 161.105 155.61 177.8C155.61 204.732 150.098 241.43 141.435 283.482H146.475C161.595 257.337 194.198 231.98 211.838 223.002C222.863 217.648 235.463 216.387 241.133 227.727C247.59 240.957 241.133 251.037 226.013 259.385C210.42 268.362 187.583 284.9 169.47 302.855C180.338 318.762 195.615 336.402 210.263 350.577C213.728 349.002 217.665 348.372 222.075 348.372C232.155 348.372 243.653 359.555 243.653 372.47C243.653 385.227 235.778 396.253 219.713 396.253C198.608 396.253 164.588 358.925 145.688 332.465C139.388 343.175 134.348 355.145 130.095 369.95C125.213 386.645 118.598 393.26 107.73 393.26ZM308.264 395.465C285.427 395.465 262.432 375.305 262.432 334.512C262.432 261.905 313.147 223.79 349.214 223.79C367.327 223.79 385.124 230.09 392.054 242.06C395.362 226.152 403.237 218.435 415.364 220.167C428.122 221.9 432.059 230.405 429.067 250.25C424.184 281.907 419.144 316.715 414.262 350.262C422.609 353.097 427.177 362.39 427.177 372.942C427.177 386.015 417.884 395.78 403.237 395.78C384.967 395.78 375.517 380.975 375.517 359.555C375.517 353.097 376.147 344.592 377.249 335.142H373.154C356.932 376.722 332.519 395.465 308.264 395.465ZM300.704 327.74C300.704 345.695 305.429 360.5 318.659 360.5C335.039 360.5 363.547 321.282 378.824 276.08H377.564C367.957 276.08 359.767 269.622 356.932 258.755C355.199 258.44 353.309 258.282 351.419 258.282C326.692 258.282 300.704 292.617 300.704 327.74ZM527.069 396.568C495.726 396.568 478.874 375.935 478.874 340.34C478.874 325.377 482.024 303.17 486.591 279.23L468.794 281.12C457.769 282.222 447.846 274.19 446.744 263.165C445.641 252.297 454.146 242.375 464.856 241.272L495.254 238.122C499.979 217.49 504.861 197.802 508.799 182.525C513.209 165.987 522.501 156.222 536.361 159.215C547.229 161.577 555.104 171.027 550.379 187.722C547.544 197.645 543.134 214.34 538.409 233.555L579.516 229.145C590.699 227.885 600.464 235.917 601.724 246.785C602.826 257.81 594.636 267.732 583.139 268.835L528.959 274.662C523.919 299.075 519.981 322.227 519.981 336.087C519.981 348.845 523.289 357.665 532.581 357.665C545.496 357.665 557.781 341.285 568.806 325.377C576.209 314.667 585.186 311.832 594.479 316.557C605.031 321.755 607.236 333.252 601.881 344.435C590.226 368.848 560.931 396.568 527.069 396.568ZM709.806 395.623C695.001 395.623 680.983 386.33 680.983 365.697C680.983 356.72 684.291 343.805 690.276 325.062C697.521 301.752 706.026 282.537 714.373 263.007L710.278 260.015C699.096 265.055 677.991 272.615 665.706 273.087C654.051 273.402 647.278 269.15 644.286 257.337C640.978 243.95 647.121 233.87 662.871 229.617C681.298 224.42 710.593 220.01 728.548 220.01C743.668 220.01 755.953 228.987 755.953 250.092C755.953 257.337 753.906 269.15 748.393 285.057C740.833 306.477 731.383 331.047 722.406 351.68L726.343 354.83C737.683 350.105 757.213 343.017 770.916 342.545C781.941 342.23 789.816 346.325 792.493 356.877C795.486 369.635 789.658 380.66 774.066 385.385C758.158 390.267 731.068 395.623 709.806 395.623ZM687.756 165.83C687.756 148.032 702.246 138.11 718.783 138.11C736.108 138.11 749.181 149.135 749.181 165.515C749.181 184.1 733.746 195.125 720.673 195.125C712.483 195.125 705.238 191.502 701.773 184.415C692.796 183.785 687.756 176.697 687.756 165.83ZM899.945 395.78C863.248 395.78 835.843 372.942 832.378 336.875C823.085 336.875 817.1 331.047 815.998 322.7C814.423 312.147 821.038 305.218 832.22 303.485C832.85 303.327 833.795 303.327 834.74 303.17C842.93 261.59 871.123 220.01 921.523 220.01C960.11 220.01 978.853 245.052 978.853 274.347C978.853 297.815 970.348 308.367 942.785 315.297C931.288 318.29 898.055 324.905 871.438 330.102C873.643 350.577 883.88 361.287 900.89 361.287C916.798 361.287 928.925 356.405 941.525 347.27C949.715 341.442 956.173 338.765 964.835 347.27C972.553 354.83 972.71 365.067 964.678 372.47C952.55 383.652 929.555 395.78 899.945 395.78ZM875.218 296.397C895.063 293.09 916.01 289.467 926.405 287.42C939.95 284.742 944.518 279.387 944.518 270.882C944.518 262.22 938.06 254.03 922.783 254.03C898.37 254.03 882.463 274.82 875.218 296.397ZM123.638 737.465C99.3825 737.465 76.545 718.565 76.545 675.252C76.545 601.07 128.835 565.79 167.108 565.79C182.228 565.79 197.348 571.303 204.593 581.382C206.01 569.097 207.27 557.442 208.058 546.89C201.6 541.377 199.553 530.352 199.553 521.69C199.553 502.16 212.625 493.025 226.485 493.025C240.818 493.025 249.48 503.105 249.48 524.21C249.48 557.915 236.565 637.61 229.005 690.372C238.455 692.892 241.605 702.5 241.605 711.005C241.605 726.282 232.155 737.78 216.563 737.78C197.82 737.78 191.363 722.03 191.363 700.295C191.363 693.837 191.835 685.962 192.623 677.142H187.268C171.045 718.722 146.633 737.465 123.638 737.465ZM114.03 669.897C114.03 689.9 120.645 702.657 132.143 702.657C152.145 702.657 178.133 663.125 193.095 617.765C191.993 617.922 190.733 618.08 189.473 618.08C178.92 618.08 172.778 612.882 170.888 600.755C169.155 600.44 167.423 600.282 165.533 600.282C138.285 600.282 114.03 634.46 114.03 669.897ZM341.024 737.78C303.382 737.78 272.669 712.58 272.669 665.96C272.669 606.425 309.997 559.175 361.657 559.175C377.407 559.175 393.944 564.372 404.654 575.24C413.789 584.532 417.097 596.502 410.954 605.007C410.797 605.165 410.639 605.322 410.639 605.48C416.624 614.615 420.404 627.687 420.404 644.382C420.404 695.727 388.117 737.78 341.024 737.78ZM311.572 661.707C311.572 682.182 321.809 702.657 342.284 702.657C365.594 702.657 382.447 672.417 382.447 648.635C382.447 638.555 379.297 629.262 373.627 620.757C367.957 611.622 365.909 606.897 369.374 600.597C370.477 598.55 371.894 596.975 373.627 595.557C370.477 594.455 367.327 593.667 364.019 593.667C334.409 593.667 311.572 630.837 311.572 661.707ZM528.171 737.78C491.474 737.78 464.069 714.942 460.604 678.875C451.311 678.875 445.326 673.047 444.224 664.7C442.649 654.147 449.264 647.218 460.446 645.485C461.076 645.327 462.021 645.327 462.966 645.17C471.156 603.59 499.349 562.01 549.749 562.01C588.336 562.01 607.079 587.052 607.079 616.347C607.079 639.815 598.574 650.367 571.011 657.297C559.514 660.29 526.281 666.905 499.664 672.102C501.869 692.577 512.106 703.287 529.116 703.287C545.024 703.287 557.151 698.405 569.751 689.27C577.941 683.442 584.399 680.765 593.061 689.27C600.779 696.83 600.936 707.067 592.904 714.47C580.776 725.652 557.781 737.78 528.171 737.78ZM503.444 638.397C523.289 635.09 544.236 631.467 554.631 629.42C568.176 626.742 572.744 621.387 572.744 612.882C572.744 604.22 566.286 596.03 551.009 596.03C526.596 596.03 510.689 616.82 503.444 638.397ZM702.403 740.93C682.243 740.93 662.871 736.993 652.161 730.85C646.491 727.7 639.718 719.982 643.026 709.115C645.861 699.035 653.736 691.947 664.446 696.515C675.628 701.397 689.173 705.965 707.128 705.965C721.461 705.965 735.636 702.972 735.636 695.57C735.636 687.695 714.531 674.78 697.521 664.542C680.038 654.147 658.933 640.602 658.933 616.82C658.933 583.43 700.356 559.175 740.991 559.175C778.161 559.175 791.391 580.91 789.028 599.652C791.706 603.117 792.651 607.685 792.651 613.512C792.651 640.287 750.598 640.13 750.598 615.56C750.598 606.425 753.591 601.857 755.638 596.817L752.803 593.667C727.761 592.722 698.938 599.652 698.938 613.355C698.938 625.167 721.776 638.24 737.998 647.532C759.418 660.132 778.791 675.725 778.791 696.357C778.791 726.282 740.203 740.93 702.403 740.93ZM155.295 1080.57C123.953 1080.57 107.1 1059.93 107.1 1024.34C107.1 1009.38 110.25 987.17 114.818 963.23L97.02 965.12C85.995 966.222 76.0725 958.19 74.97 947.165C73.8675 936.297 82.3725 926.375 93.0825 925.272L123.48 922.122C128.205 901.49 133.088 881.802 137.025 866.525C141.435 849.987 150.728 840.222 164.588 843.215C175.455 845.577 183.33 855.027 178.605 871.722C175.77 881.645 171.36 898.34 166.635 917.555L207.743 913.145C218.925 911.885 228.69 919.917 229.95 930.785C231.053 941.81 222.863 951.732 211.365 952.835L157.185 958.662C152.145 983.075 148.208 1006.23 148.208 1020.09C148.208 1032.84 151.515 1041.66 160.808 1041.66C173.723 1041.66 186.008 1025.28 197.033 1009.38C204.435 998.667 213.413 995.832 222.705 1000.56C233.258 1005.75 235.463 1017.25 230.108 1028.43C218.453 1052.85 189.158 1080.57 155.295 1080.57ZM396.464 1090.49C383.077 1090.49 374.099 1081.51 370.949 1065.76C366.224 1042.45 370.004 993.942 380.714 948.267L377.407 947.165C355.042 979.452 333.622 1020.72 319.762 1050.01C311.257 1067.81 301.492 1080.25 288.577 1080.25C272.984 1080.25 270.307 1061.19 274.559 1041.66C280.229 1016.78 296.294 935.982 300.389 887C295.192 881.487 292.672 871.722 292.672 861.642C292.672 845.105 304.012 834.395 316.927 834.395C330.314 834.395 339.449 846.207 339.449 862.587C339.449 891.882 325.747 961.025 320.707 977.877L326.692 978.822C339.134 955.827 353.782 935.195 366.382 921.335C375.359 911.727 386.384 904.01 398.827 904.01C417.412 904.01 422.924 921.02 418.514 943.227C412.529 972.995 405.757 1009.53 405.442 1043.24C414.892 1045.92 419.932 1055.84 419.932 1066.55C419.932 1081.2 409.852 1090.49 396.464 1090.49ZM523.919 1079.62C509.114 1079.62 495.096 1070.33 495.096 1049.7C495.096 1040.72 498.404 1027.8 504.389 1009.06C511.634 985.752 520.139 966.537 528.486 947.007L524.391 944.015C513.209 949.055 492.104 956.615 479.819 957.087C468.164 957.402 461.391 953.15 458.399 941.337C455.091 927.95 461.234 917.87 476.984 913.617C495.411 908.42 524.706 904.01 542.661 904.01C557.781 904.01 570.066 912.987 570.066 934.092C570.066 941.337 568.019 953.15 562.506 969.057C554.946 990.477 545.496 1015.05 536.519 1035.68L540.456 1038.83C551.796 1034.1 571.326 1027.02 585.029 1026.54C596.054 1026.23 603.929 1030.32 606.606 1040.88C609.599 1053.63 603.771 1064.66 588.179 1069.38C572.271 1074.27 545.181 1079.62 523.919 1079.62ZM501.869 849.83C501.869 832.032 516.359 822.11 532.896 822.11C550.221 822.11 563.294 833.135 563.294 849.515C563.294 868.1 547.859 879.125 534.786 879.125C526.596 879.125 519.351 875.502 515.886 868.415C506.909 867.785 501.869 860.697 501.869 849.83ZM767.608 1090.49C745.401 1090.49 740.833 1068.12 740.833 1042.61C740.833 1017.09 744.928 981.657 752.803 948.267L749.181 947.165C726.658 979.452 704.136 1020.72 691.536 1050.01C683.818 1067.65 673.266 1080.25 660.193 1080.25C644.443 1080.25 640.663 1061.67 646.333 1041.66C653.263 1017.57 661.453 984.807 663.973 949.685C658.618 944.33 656.098 934.25 656.098 924.17C656.098 907.632 667.438 896.922 680.511 896.922C693.898 896.922 702.876 907.317 702.876 926.375C702.876 941.337 698.781 961.025 692.638 977.877L698.308 978.822C710.751 953.622 725.241 935.195 737.998 921.335C747.133 911.255 758.158 904.01 769.971 904.01C781.311 904.01 791.863 910.625 791.863 928.895C791.863 960.867 779.736 1002.76 777.688 1043.4C786.823 1046.23 791.706 1056 791.706 1066.39C791.706 1081.2 781.783 1090.49 767.608 1090.49ZM887.503 1143.41C861.043 1143.41 841.355 1135.06 829.385 1123.88C821.353 1116.32 821.195 1107.03 828.44 1097.42C835.37 1088.29 845.45 1089.86 854.743 1095.69C862.933 1101.36 873.643 1107.34 886.715 1107.34C903.095 1107.34 921.523 1095.69 928.138 1060.88C930.028 1050.48 932.705 1035.05 935.383 1018.04H931.603C913.805 1052.85 887.503 1064.97 867.5 1064.97C846.71 1064.97 820.88 1046.23 820.88 1005.44C820.88 951.732 858.05 907.79 908.608 907.79C924.83 907.79 941.683 913.932 950.188 923.382C952.708 911.412 956.96 904.01 970.505 904.01C983.578 904.01 988.933 914.09 986.885 930.312C984.365 952.992 973.34 1027.17 967.355 1063.87C960.268 1106.71 935.855 1143.41 887.503 1143.41ZM858.995 1001.97C858.995 1017.88 864.35 1030.17 877.423 1030.17C892.228 1030.17 917.9 1004.81 935.54 960.867C926.09 960.395 918.215 954.41 915.695 942.912C913.648 942.44 911.6 942.282 909.553 942.282C878.368 942.282 858.995 970.317 858.995 1001.97ZM1074.18 1082.93C1054.02 1082.93 1034.64 1078.99 1023.93 1072.85C1018.26 1069.7 1011.49 1061.98 1014.8 1051.11C1017.63 1041.03 1025.51 1033.95 1036.22 1038.51C1047.4 1043.4 1060.95 1047.96 1078.9 1047.96C1093.23 1047.96 1107.41 1044.97 1107.41 1037.57C1107.41 1029.7 1086.3 1016.78 1069.29 1006.54C1051.81 996.147 1030.71 982.602 1030.71 958.82C1030.71 925.43 1072.13 901.175 1112.76 901.175C1149.93 901.175 1163.16 922.91 1160.8 941.652C1163.48 945.117 1164.42 949.685 1164.42 955.512C1164.42 982.287 1122.37 982.13 1122.37 957.56C1122.37 948.425 1125.36 943.857 1127.41 938.817L1124.58 935.667C1099.53 934.722 1070.71 941.652 1070.71 955.355C1070.71 967.167 1093.55 980.24 1109.77 989.532C1131.19 1002.13 1150.56 1017.72 1150.56 1038.36C1150.56 1068.28 1111.98 1082.93 1074.18 1082.93Z" fill="black"/>
</svg>
